<svg id="visual" viewBox="0 0 900 600" width="900" height="600" xmlns="http://www.w3.org/2000/svg" xmlns:xlink="http://www.w3.org/1999/xlink" version="1.1"><path d="M0 193L82 193L82 223L164 223L164 163L245 163L245 115L327 115L327 151L409 151L409 157L491 157L491 169L573 169L573 133L655 133L655 199L736 199L736 115L818 115L818 169L900 169L900 163L900 0L900 0L818 0L818 0L736 0L736 0L655 0L655 0L573 0L573 0L491 0L491 0L409 0L409 0L327 0L327 0L245 0L245 0L164 0L164 0L82 0L82 0L0 0Z" fill="#ffffff"></path><path d="M0 277L82 277L82 271L164 271L164 223L245 223L245 157L327 157L327 217L409 217L409 247L491 247L491 247L573 247L573 217L655 217L655 259L736 259L736 163L818 163L818 223L900 223L900 205L900 161L900 167L818 167L818 113L736 113L736 197L655 197L655 131L573 131L573 167L491 167L491 155L409 155L409 149L327 149L327 113L245 113L245 161L164 161L164 221L82 221L82 191L0 191Z" fill="#e9e6ff"></path><path d="M0 391L82 391L82 325L164 325L164 319L245 319L245 223L327 223L327 295L409 295L409 379L491 379L491 331L573 331L573 325L655 325L655 391L736 391L736 241L818 241L818 331L900 331L900 277L900 203L900 221L818 221L818 161L736 161L736 257L655 257L655 215L573 215L573 245L491 245L491 245L409 245L409 215L327 215L327 155L245 155L245 221L164 221L164 269L82 269L82 275L0 275Z" fill="#d2cdff"></path><path d="M0 505L82 505L82 433L164 433L164 463L245 463L245 451L327 451L327 457L409 457L409 487L491 487L491 457L573 457L573 487L655 487L655 505L736 505L736 475L818 475L818 445L900 445L900 427L900 275L900 329L818 329L818 239L736 239L736 389L655 389L655 323L573 323L573 329L491 329L491 377L409 377L409 293L327 293L327 221L245 221L245 317L164 317L164 323L82 323L82 389L0 389Z" fill="#bab5ff"></path><path d="M0 553L82 553L82 535L164 535L164 547L245 547L245 529L327 529L327 535L409 535L409 559L491 559L491 559L573 559L573 559L655 559L655 559L736 559L736 529L818 529L818 523L900 523L900 535L900 425L900 443L818 443L818 473L736 473L736 503L655 503L655 485L573 485L573 455L491 455L491 485L409 485L409 455L327 455L327 449L245 449L245 461L164 461L164 431L82 431L82 503L0 503Z" fill="#9f9eff"></path><path d="M0 601L82 601L82 601L164 601L164 601L245 601L245 601L327 601L327 601L409 601L409 601L491 601L491 601L573 601L573 601L655 601L655 601L736 601L736 601L818 601L818 601L900 601L900 601L900 533L900 521L818 521L818 527L736 527L736 557L655 557L655 557L573 557L573 557L491 557L491 557L409 557L409 533L327 533L327 527L245 527L245 545L164 545L164 533L82 533L82 551L0 551Z" fill="#8087ff"></path></svg>